<?xml version="1.0" encoding="utf-8"?>
<!DOCTYPE svg PUBLIC "-//W3C//DTD SVG 1.1//EN" "http://www.w3.org/Graphics/SVG/1.1/DTD/svg11.dtd">
<svg version="1.1" xmlns="http://www.w3.org/2000/svg" xmlns:xlink="http://www.w3.org/1999/xlink" x="0px" y="0px" width="90px"
	 height="90px" viewBox="0 0 500 500" enable-background="new 0 0 500 500" xml:space="preserve">
<g id="Ebene_2" display="none">
	<rect x="-35" y="-24" display="inline" fill="#FFFFFF" width="0" height="0"/>
	<rect x="-11.667" y="-23" display="inline" fill="#FFFFFF" width="538" height="546"/>
</g>
<g id="Ebene_6">
	<circle fill="#010202" stroke="#000000" stroke-miterlimit="10" cx="243.667" cy="242.562" r="226.563"/>
</g>
<g id="Ebene_7">
	<g>
		<circle fill="#010202" cx="243.667" cy="242.562" r="226.563"/>
		<circle fill="none" stroke="#000000" stroke-miterlimit="10" cx="243.667" cy="242.562" r="226.563"/>
	</g>
</g>
<g id="Ebene_1">
	<rect x="40.668" y="107.667" fill="none" width="224.666" height="284"/>
	<text transform="matrix(1 0 0 1 40.6685 366.0645)" fill="#FFFFFF" font-family="'Droid Serif'" font-size="340">Y</text>
	<rect x="192.562" y="198.791" fill="none" width="270" height="281.334"/>
	<text transform="matrix(1 0 0 1 192.5625 441.9893)" fill="#FFFFFF" font-family="'Droid Serif'" font-size="320">H</text>
	
		<line display="none" fill="#FFFFFF" stroke="#FFFFFF" stroke-width="3" stroke-miterlimit="10" x1="96.5" y1="365" x2="49.5" y2="365"/>
	
		<line display="none" fill="#FFFFFF" stroke="#FFFFFF" stroke-width="3" stroke-miterlimit="10" x1="208" y1="440.5" x2="124.5" y2="440.5"/>
</g>
<g id="Ebene_3">
	<g>
		<circle fill="#A8B619" cx="434.001" cy="126" r="57.333"/>
	</g>
	<path fill="#FFFFFF" d="M400.161,77.967c0,0,8.508-4.925,12.908-6.369c4.4-1.444,15.481-3.87,18.752-3.825
		c3.271,0.044,12.976,0.576,17.489,1.911c4.516,1.334,14.652,4.962,19.994,9.219c5.344,4.258,10.345,7.89,14.271,14.262
		c3.928,6.373,13.218,19.906,10.003,42.607c-3.214,22.701-22.528,38.738-31.547,43.252
		C464.023,189.285,451.796,128.525,400.161,77.967z"/>
</g>
<g id="Ebene_5">
	<g>
		<circle fill="#C88329" cx="355.668" cy="76.667" r="57.333"/>
	</g>
	<path fill="#FFFFFF" d="M321.969,29.969c0,0,20.906-21.344,59.781-6.469c0,0,19,8,30,23.625s1.316,42.753,0.658,43.814
		S379.25,49.75,321.969,29.969z"/>
</g>
<g id="Ebene_4">
	<g>
		<circle fill="#7895CC" enable-background="new    " cx="270.001" cy="37.999" r="57.333"/>
	</g>
	<path fill="#FFFFFF" d="M215.75,17.312c0,0,7.417-26.146,34.25-35.312s53.666,5.333,55.333,7s18.001,12.333,23.834,42.667
		C293.667,21.5,267.833,11.5,215.75,17.312z"/>
</g>
</svg>
