<?xml version="1.0" encoding="UTF-8"?>
<svg width="153px" height="34px" viewBox="0 0 153 34" version="1.1" xmlns="http://www.w3.org/2000/svg" xmlns:xlink="http://www.w3.org/1999/xlink">
    <!-- Generator: Sketch 46.2 (44496) - http://www.bohemiancoding.com/sketch -->
    <title>sevdesk-logo</title>
    <desc>Created with Sketch.</desc>
    <defs/>
    <g id="Price" stroke="none" stroke-width="1" fill="none" fill-rule="evenodd">
        <g id="Pricing-04" transform="translate(-136.000000, -19.000000)" fill-rule="nonzero">
            <g id="Header">
                <g id="sevdesk-logo" transform="translate(136.000000, 19.000000)">
                    <path d="M1.51943895,0.62307428 C2.06880132,0.550057763 2.62650843,0.595258464 3.17934778,0.58830451 C12.9378314,0.58830451 22.6984013,0.586218324 32.4554942,0.58830451 C32.9680006,0.547276181 33.4985873,0.86646267 33.6376664,1.39357238 C33.7127691,1.94988871 33.7072059,2.50620503 33.7072059,3.10772205 C33.7051197,12.9127972 33.7072059,22.7874119 33.7072059,32.5924871 C33.7544928,33.1244646 33.420703,33.6884302 32.8762084,33.7941303 C32.3984718,33.8588021 31.9158673,33.8247277 31.4381307,33.8289001 C21.600372,33.8247277 11.7619178,33.8330725 1.92415908,33.8268139 C1.24128079,33.8935719 0.655757864,33.2517219 0.761457965,32.5778838 C0.709998705,22.3221924 0.695395402,12.09988 0.695395402,1.83097609 C0.645326933,1.32125126 0.973553562,0.764934942 1.51943895,0.62307428 L1.51943895,0.62307428 Z" id="Shape" fill="#CC0000"/>
                    <path d="M140.256385,5.48319274 C141.051222,5.48319274 141.845363,5.48110655 142.620729,5.48527893 C142.618643,9.81341991 142.614471,14.1081819 142.620729,18.4891729 C145.019148,16.0281686 147.407136,13.556038 149.808336,11.099206 C150.68662,11.099206 151.546824,11.099206 152.450838,11.1012922 C150.583702,13.0803875 148.706134,15.0504427 146.850124,17.0121531 C148.816007,19.7937347 150.744338,22.5057768 152.691445,25.2977893 C151.843063,25.3019617 150.994681,25.2852722 150.146298,25.313088 C148.483608,23.0266279 146.903669,20.6796685 145.262536,18.3758235 C144.373126,19.2283782 143.467025,20.0663297 142.585959,20.9272292 C142.594304,22.3875596 142.585959,23.8478899 142.585959,25.2963985 C141.791122,25.2984847 140.996981,25.3005709 140.20423,25.2963985 C140.256385,18.7061363 140.261252,12.09988 140.261252,5.48319274 L140.256385,5.48319274 Z M106.158367,15.6095406 C106.179924,18.0322982 105.508172,20.5468479 103.882337,22.4244155 C102.243986,24.3103278 99.7349993,25.29014 97.2656502,25.3228235 C94.9444204,25.3527255 92.6231905,25.3290821 90.3040468,25.3353407 C90.3019607,18.8716404 90.3040468,12.4079401 90.3019607,5.9435445 C92.7003794,5.9435445 95.0994935,5.93033198 97.5340728,5.95188924 C99.9756061,6.02142878 102.47138,7.06452188 104.00125,8.93374472 C105.547114,10.7786287 106.186878,13.2125126 106.186878,15.6095406 L106.158367,15.6095406 Z M103.056903,11.9705364 C102.337864,10.0519405 100.603548,8.58326544 98.6049818,8.16185583 C96.6731733,7.82597985 94.690601,8.05198335 92.7525341,7.98731158 C92.7525341,13.063698 92.7525341,18.1400844 92.7525341,23.2164709 C94.690601,23.1538853 96.6467483,23.35555 98.5855107,23.0502714 C100.618151,22.6518098 102.319089,21.1233307 103.038127,19.1963901 C103.919193,16.8981083 103.961613,14.2556057 103.057599,11.9705364 L103.056903,11.9705364 Z M127.038309,12.2118386 C125.877694,13.24311 125.470888,14.9746446 125.918722,16.4426243 C126.209398,17.3466383 127.031355,17.8334151 127.865829,18.1845898 C129.374837,18.7409061 130.995109,19.0886038 132.524979,19.505841 C133.216202,19.7144596 133.985309,19.9926178 134.333007,20.7116566 C134.709911,21.5461311 134.402546,22.6086953 133.64387,23.112857 C132.700914,23.7693102 131.486058,23.8145109 130.383856,23.7387128 C128.788619,23.5926798 127.330375,22.8256587 126.068928,21.8806163 C125.720535,22.4230247 125.375619,22.9661285 125.033484,23.5127093 C126.788662,24.9035001 129.066777,25.529356 131.292043,25.529356 C133.036094,25.529356 134.958863,25.0537055 136.065932,23.6065877 C137.140318,22.1726824 137.161875,19.7290629 135.540909,18.6783205 C133.533997,17.3348166 130.986764,17.3542876 128.835906,16.3633492 C127.881824,15.9454166 127.798376,14.6818831 128.232998,13.8571442 C128.586259,13.2027771 129.324769,12.8815044 130.018078,12.7264312 C131.89356,12.3648256 133.912292,12.9350499 135.303083,14.1867616 C135.664689,13.6999848 136.029076,13.2152942 136.390682,12.7271266 C134.958863,11.5366097 133.109111,10.8885012 131.251014,10.8752887 C129.785816,10.8481683 128.161373,11.195866 127.04874,12.2389591 L127.038309,12.2118386 Z M49.0490193,11.3092154 C47.7291588,11.6318789 46.4461543,12.5018185 46.0150091,13.8453224 C45.6360186,15.0358394 45.677047,16.6269041 46.8494836,17.391839 C49.0351113,18.7826298 51.8563305,18.5740112 54.0815958,19.8702282 C55.313141,20.6351631 55.1942284,22.5822703 54.1511353,23.4250895 C52.9432335,24.4459299 51.238124,24.532159 49.7367653,24.3291035 C48.2945152,24.1420422 46.9829995,23.4056184 45.8995735,22.4577945 C45.6714838,22.7637685 45.4433941,23.0690471 45.214609,23.3729348 C46.9155462,25.0418838 49.3869814,25.6677397 51.6817862,25.459121 C52.993302,25.3624611 54.3409783,24.920885 55.2776759,23.9584578 C56.19073,23.039145 56.4723652,21.6045443 56.1218859,20.3750853 C55.824952,19.4557725 54.9744835,18.8549509 54.1212333,18.4954315 C52.1852525,17.7179794 50.0622104,17.5267457 48.146396,16.7082653 C46.9969074,16.2214885 46.9301495,14.6950956 47.4377881,13.7173697 C47.9461221,12.7292128 49.080312,12.2876367 50.1317499,12.1888906 C51.9147437,12.0018292 53.8868851,12.4670488 55.1385968,13.8620119 C55.3924161,13.6165374 55.6511032,13.3794075 55.9049225,13.1339329 C54.2359736,11.195866 51.3897202,10.7090892 49.0253758,11.334945 L49.0490193,11.3092154 Z M73.9038417,11.2987845 C75.8676383,15.9579337 77.7980559,20.6866224 79.7451631,25.309611 C80.2013425,25.29014 80.6603034,25.29014 81.118569,25.2991801 C83.086538,20.6393355 85.017651,15.9628014 86.9710167,11.2966983 C86.5252682,11.2966983 86.0795198,11.2966983 85.6337713,11.2966983 C83.9196217,15.4718523 82.2012996,19.6442247 80.4941039,23.8138155 C80.1624003,23.4090954 80.0504416,22.8861581 79.841823,22.4160708 C78.3196025,18.7061363 76.8404965,14.9788169 75.2988049,11.2779226 C74.8530564,11.2654055 74.407308,11.2654055 73.9205312,11.2654055 L73.9038417,11.2987845 Z M72.7195833,18.8459108 C68.6132735,18.847997 64.5069636,18.8438246 60.4013492,18.847997 C60.5605947,20.9341832 61.79214,22.9508298 63.6697076,23.8548439 C66.0361381,25.1065556 69.3719499,24.133002 70.5770701,21.7596175 C70.9776178,21.8986966 71.342005,21.9682361 71.7592423,22.0871487 C70.202252,25.372892 65.6460213,26.4173759 62.6057526,24.6601117 C59.920831,23.1636208 58.5404711,19.8389354 59.1197355,16.8591661 C59.4792549,14.9301393 60.6183125,13.1123757 62.310905,12.0873629 C64.3219885,10.8259156 67.0326397,10.7396866 69.1000503,11.9197726 C71.5478421,13.2125126 72.9469776,16.1331733 72.738359,18.8459108 L72.7195833,18.8459108 Z M71.4143262,17.7520538 C71.2682931,15.7041144 70.0770808,13.7062434 68.1890823,12.8272636 C66.3115147,11.9037785 63.9103144,12.2222696 62.3428931,13.608888 C61.1266466,14.6318146 60.5042677,16.1992359 60.3707518,17.75414 C64.0528704,17.7325827 67.7315121,17.7325827 71.4171077,17.7520538 L71.4143262,17.7520538 Z M123.187905,19.060788 C119.295081,19.060788 115.404344,19.060788 111.51152,19.0628741 C111.64295,20.7318231 112.554614,22.3312325 114.014944,23.1775287 C116.079573,24.4292405 119.16087,23.6643055 120.263767,21.4571205 C120.950818,21.6657391 121.654558,21.8048182 122.349953,22.0210862 C120.534971,25.6538318 115.297948,26.5425471 112.090089,24.2734719 C109.362053,22.4153754 108.354425,18.6212981 109.467753,15.5726846 C110.027547,13.9857923 111.153392,12.5929153 112.637366,11.7806935 C115.386959,10.1854564 119.224151,10.680578 121.329808,13.0810829 C122.796397,14.672843 123.432684,16.8981083 123.154526,19.060788 L123.187905,19.060788 Z M120.98976,17.3257764 C120.845813,15.7972973 120.100349,14.2834215 118.810391,13.4093095 C117.249228,12.3071078 114.99267,12.3328374 113.470449,13.4913662 C112.251421,14.3766045 111.590795,15.8536244 111.455193,17.3160409 C114.63315,17.3153455 117.799981,17.3153455 120.9988,17.3257764 L120.98976,17.3257764 Z" id="Shape" fill="#000000"/>
                    <path d="M22.9890766,7.85170948 C24.136479,7.85170948 25.2838814,7.85170948 26.4660536,7.85170948 C26.4660536,14.3188867 26.4660536,20.7860639 26.4660536,27.2302931 C25.3186512,27.2302931 24.1684672,27.2302931 23.0210648,27.2302931 C22.9890766,20.7923225 23.0175878,14.3251453 23.0175878,7.85170948 L22.9890766,7.85170948 Z M15.4530766,14.3112374 C15.4530766,18.6922284 15.4530766,23.0732194 15.4530766,27.4458657 C16.600479,27.4458657 17.7478814,27.4458657 18.9300536,27.4458657 C18.9300536,23.0683517 18.9300536,18.6887514 18.9300536,14.3112374 C17.7499676,14.3251453 16.6199501,14.3251453 15.4377779,14.3112374 L15.4530766,14.3112374 Z M8.13195383,20.7707652 C8.13195383,22.926491 8.13195383,25.0822167 8.13195383,27.2379425 C9.27935624,27.2379425 10.4267587,27.2379425 11.6089308,27.2379425 C11.6089308,25.0849983 11.6089308,22.9313588 11.6089308,20.7784146 C10.4295402,20.7923225 9.24875884,20.7923225 8.1361262,20.7707652 L8.13195383,20.7707652 Z" id="Shape" fill="#FFFFFF"/>
                </g>
            </g>
        </g>
    </g>
</svg>